<?xml version="1.0" encoding="UTF-8" standalone="no"?>
<!-- Created with Inkscape (http://www.inkscape.org/) -->
<svg
   xmlns:dc="http://purl.org/dc/elements/1.1/"
   xmlns:cc="http://creativecommons.org/ns#"
   xmlns:rdf="http://www.w3.org/1999/02/22-rdf-syntax-ns#"
   xmlns:svg="http://www.w3.org/2000/svg"
   xmlns="http://www.w3.org/2000/svg"
   xmlns:xlink="http://www.w3.org/1999/xlink"
   xmlns:sodipodi="http://sodipodi.sourceforge.net/DTD/sodipodi-0.dtd"
   xmlns:inkscape="http://www.inkscape.org/namespaces/inkscape"
   width="512"
   height="512"
   id="svg2"
   sodipodi:version="0.32"
   inkscape:version="0.46"
   sodipodi:docname="sign_warning.svg"
   inkscape:output_extension="org.inkscape.output.svg.inkscape"
   version="1.0">
  <defs
     id="defs4">
    <linearGradient
       id="linearGradient5009">
      <stop
         id="stop5011"
         offset="0"
         style="stop-color:#ffffff;stop-opacity:1;" />
      <stop
         style="stop-color:#ffe100;stop-opacity:1;"
         offset="0.56905383"
         id="stop5013" />
      <stop
         id="stop5015"
         offset="1"
         style="stop-color:#ac6600;stop-opacity:1;" />
    </linearGradient>
    <linearGradient
       id="linearGradient4989">
      <stop
         id="stop4991"
         offset="0"
         style="stop-color:#ffffff;stop-opacity:1" />
      <stop
         style="stop-color:#00ff00;stop-opacity:1;"
         offset="0.5"
         id="stop4993" />
      <stop
         id="stop4995"
         offset="1"
         style="stop-color:#006900;stop-opacity:1;" />
    </linearGradient>
    <linearGradient
       inkscape:collect="always"
       id="linearGradient4973">
      <stop
         style="stop-color:#000000;stop-opacity:1;"
         offset="0"
         id="stop4975" />
      <stop
         style="stop-color:#000000;stop-opacity:0;"
         offset="1"
         id="stop4977" />
    </linearGradient>
    <linearGradient
       id="linearGradient3240">
      <stop
         style="stop-color:#ffffff;stop-opacity:1"
         offset="0"
         id="stop3242" />
      <stop
         id="stop3244"
         offset="0.5"
         style="stop-color:#ff0000;stop-opacity:1;" />
      <stop
         style="stop-color:#7c0000;stop-opacity:1;"
         offset="1"
         id="stop3246" />
    </linearGradient>
    <radialGradient
       inkscape:collect="always"
       xlink:href="#linearGradient3240"
       id="radialGradient4165"
       gradientUnits="userSpaceOnUse"
       gradientTransform="matrix(1.1659096,1.0918303,-1.0702777,1.1428946,171.35509,-264.27699)"
       cx="294.28574"
       cy="289.50504"
       fx="294.28574"
       fy="289.50504"
       r="260.5" />
    <linearGradient
       id="linearGradient3155">
      <stop
         style="stop-color:#ffffff;stop-opacity:1"
         offset="0"
         id="stop3157" />
      <stop
         id="stop3165"
         offset="0.5"
         style="stop-color:#00ff00;stop-opacity:1;" />
      <stop
         style="stop-color:#006900;stop-opacity:1;"
         offset="1"
         id="stop3159" />
    </linearGradient>
    <inkscape:perspective
       sodipodi:type="inkscape:persp3d"
       inkscape:vp_x="0 : 526.18109 : 1"
       inkscape:vp_y="0 : 1000 : 0"
       inkscape:vp_z="744.09448 : 526.18109 : 1"
       inkscape:persp3d-origin="372.04724 : 350.78739 : 1"
       id="perspective10" />
    <radialGradient
       inkscape:collect="always"
       xlink:href="#linearGradient3155"
       id="radialGradient3161"
       cx="294.28574"
       cy="289.50504"
       fx="294.28574"
       fy="289.50504"
       r="260.5"
       gradientUnits="userSpaceOnUse"
       gradientTransform="matrix(1.1841269,1.1088901,-1.0870008,1.1607523,260.50628,-372.86914)" />
    <radialGradient
       inkscape:collect="always"
       xlink:href="#linearGradient3240"
       id="radialGradient4354"
       gradientUnits="userSpaceOnUse"
       gradientTransform="matrix(1.1659096,1.0918303,-1.0702777,1.1428946,171.35509,-264.27699)"
       cx="294.28574"
       cy="289.50504"
       fx="294.28574"
       fy="289.50504"
       r="260.5" />
    <radialGradient
       inkscape:collect="always"
       xlink:href="#linearGradient3240"
       id="radialGradient4357"
       gradientUnits="userSpaceOnUse"
       gradientTransform="matrix(1.1659096,1.0918303,-1.0702777,1.1428946,110.21223,-500.27699)"
       cx="294.28574"
       cy="289.50504"
       fx="294.28574"
       fy="289.50504"
       r="260.5" />
    <radialGradient
       inkscape:collect="always"
       xlink:href="#linearGradient3240"
       id="radialGradient4920"
       gradientUnits="userSpaceOnUse"
       gradientTransform="matrix(1.1659096,1.0918303,-1.0702777,1.1428946,-43.220804,-500.27699)"
       cx="294.28574"
       cy="289.50504"
       fx="294.28574"
       fy="289.50504"
       r="260.5" />
    <radialGradient
       inkscape:collect="always"
       xlink:href="#linearGradient3155"
       id="radialGradient4923"
       gradientUnits="userSpaceOnUse"
       gradientTransform="matrix(1.1659096,1.0918303,-1.0702777,1.1428946,106.7792,-500.27699)"
       cx="294.28574"
       cy="289.50504"
       fx="294.28574"
       fy="289.50504"
       r="260.5" />
    <radialGradient
       inkscape:collect="always"
       xlink:href="#linearGradient3155"
       id="radialGradient4929"
       gradientUnits="userSpaceOnUse"
       gradientTransform="matrix(1.1659096,1.0918303,-1.0702777,1.1428946,106.7792,-500.27699)"
       cx="294.28574"
       cy="289.50504"
       fx="294.28574"
       fy="289.50504"
       r="260.5" />
    <radialGradient
       inkscape:collect="always"
       xlink:href="#linearGradient3155"
       id="radialGradient4937"
       gradientUnits="userSpaceOnUse"
       gradientTransform="matrix(1.1659096,1.0918303,-1.0702777,1.1428946,106.7792,-500.27699)"
       cx="294.28574"
       cy="289.50504"
       fx="294.28574"
       fy="289.50504"
       r="260.5" />
    <radialGradient
       inkscape:collect="always"
       xlink:href="#linearGradient3155"
       id="radialGradient4940"
       gradientUnits="userSpaceOnUse"
       gradientTransform="matrix(1.1659096,1.0918303,-1.0702777,1.1428946,-254.06901,-554.5627)"
       cx="294.28574"
       cy="289.50504"
       fx="294.28574"
       fy="289.50504"
       r="260.5" />
    <linearGradient
       inkscape:collect="always"
       xlink:href="#linearGradient4973"
       id="linearGradient4979"
       x1="-7.0000002e-07"
       y1="256"
       x2="512"
       y2="256"
       gradientUnits="userSpaceOnUse"
       gradientTransform="translate(-2e-6,4.35525e-6)" />
    <radialGradient
       inkscape:collect="always"
       xlink:href="#linearGradient5009"
       id="radialGradient5007"
       cx="55.851219"
       cy="131.42757"
       fx="55.851219"
       fy="131.42757"
       r="256.5"
       gradientTransform="matrix(0.6640347,2.0843159,-2.4715889,0.7874144,509.46203,-149.61383)"
       gradientUnits="userSpaceOnUse" />
    <radialGradient
       inkscape:collect="always"
       xlink:href="#linearGradient3155"
       id="radialGradient5383"
       gradientUnits="userSpaceOnUse"
       gradientTransform="matrix(1.1659096,1.0918303,-1.0702777,1.1428946,285.93099,-515.99128)"
       cx="294.28574"
       cy="289.50504"
       fx="294.28574"
       fy="289.50504"
       r="260.5" />
    <filter
       inkscape:collect="always"
       id="filter5390">
      <feGaussianBlur
         inkscape:collect="always"
         stdDeviation="9.3051563"
         id="feGaussianBlur5392" />
    </filter>
    <radialGradient
       inkscape:collect="always"
       xlink:href="#linearGradient5009"
       id="radialGradient5394"
       gradientUnits="userSpaceOnUse"
       gradientTransform="matrix(0.6484714,2.0354647,-2.4136611,0.7689594,503.52151,-140.11338)"
       cx="55.851219"
       cy="131.42757"
       fx="55.851219"
       fy="131.42757"
       r="256.5" />
  </defs>
  <sodipodi:namedview
     id="base"
     pagecolor="#ffffff"
     bordercolor="#666666"
     borderopacity="1.0"
     gridtolerance="10000"
     guidetolerance="10"
     objecttolerance="10"
     inkscape:pageopacity="0.0"
     inkscape:pageshadow="2"
     inkscape:zoom="1.4"
     inkscape:cx="111.65066"
     inkscape:cy="262.65033"
     inkscape:document-units="px"
     inkscape:current-layer="layer1"
     showgrid="false"
     inkscape:window-width="1920"
     inkscape:window-height="1127"
     inkscape:window-x="0"
     inkscape:window-y="25" />
  <metadata
     id="metadata7">
    <rdf:RDF>
      <cc:Work
         rdf:about="">
        <dc:format>image/svg+xml</dc:format>
        <dc:type
           rdf:resource="http://purl.org/dc/dcmitype/StillImage" />
      </cc:Work>
    </rdf:RDF>
  </metadata>
  <g
     inkscape:label="Layer 1"
     inkscape:groupmode="layer"
     id="layer1">
    <path
       style="fill:#999999;fill-rule:evenodd;stroke:none;stroke-width:1px;stroke-linecap:butt;stroke-linejoin:miter;stroke-opacity:1"
       d="M 288.79929,71.067852 L 229.48144,71.067852 L 36.872852,393.47786 L 61.297852,439.53643 L 440.93215,440.93215 L 475.12715,398.36286 L 288.79929,71.067852 z"
       id="path5026"
       sodipodi:nodetypes="ccccccc" />
    <path
       style="fill:#000000;fill-rule:evenodd;stroke:none;stroke-width:1px;stroke-linecap:butt;stroke-linejoin:miter;stroke-opacity:1;filter:url(#filter5390)"
       d="M 234.84375,84.718749 L 37.71875,414.71875 L 62.71875,461.84375 L 451.28125,463.28125 L 486.28125,419.71875 L 295.5625,84.718749 L 234.84375,84.718749 z M 261.40625,137.625 C 286.8942,137.47851 301.08074,157.72608 298.3125,179.53125 C 295.77928,199.48529 285.99701,287.10325 284.25,298.75 C 282.49221,310.46861 272.5672,320.17606 261.6875,320.4375 C 250.80781,320.69895 239.87898,311.29275 238.25,298.75 C 236.80911,287.65536 226.968,197.67733 224.78125,179.8125 C 222.25302,159.1579 235.91829,137.77148 261.40625,137.625 z M 261.5625,356 C 279.27703,356.00001 293.65625,370.64893 293.65625,388.6875 C 293.65626,406.72606 279.27703,421.34375 261.5625,421.34375 C 243.84798,421.34375 229.46875,406.72607 229.46875,388.6875 C 229.46874,370.64892 243.84797,356 261.5625,356 z"
       id="path5028"
       transform="matrix(0.977,0,0,0.977,5.888,5.888)" />
    <path
       style="fill:url(#radialGradient5394);fill-opacity:1;stroke:none"
       d="M 254.32153,31.140361 C 253.85354,31.152436 253.38597,31.178748 252.91772,31.201397 C 251.49524,31.273384 250.08684,31.39943 248.67578,31.567608 C 245.81885,31.902933 242.95308,32.44366 240.13086,33.185039 C 239.99041,33.221933 239.8438,33.238727 239.70361,33.276592 C 235.2275,34.486214 230.8312,36.224924 226.58105,38.495097 C 226.07028,38.766913 225.55886,39.032798 225.05517,39.319072 C 224.95152,39.378141 224.85344,39.44245 224.75,39.502178 C 224.59516,39.591576 224.44603,39.686313 224.29224,39.776836 C 223.59122,40.188627 222.90298,40.618659 222.21704,41.058574 C 222.11721,41.122623 222.01122,41.177146 221.91186,41.24168 C 221.20761,41.699039 220.49325,42.158599 219.80615,42.645488 C 219.46124,42.889922 219.1377,43.158018 218.79908,43.408428 C 218.36782,43.727294 217.94109,44.05433 217.51733,44.384991 C 217.15822,44.665134 216.80082,44.952599 216.44922,45.239483 C 216.09568,45.52816 215.75946,45.827433 215.41162,46.124492 C 214.82828,46.622047 214.23362,47.103921 213.67212,47.619853 C 213.60867,47.678256 213.55225,47.744264 213.48901,47.802959 C 212.91571,48.334178 212.36065,48.870691 211.81055,49.420391 C 211.39499,49.836257 210.99489,50.272992 210.58984,50.702128 C 210.1843,51.131171 209.76103,51.544836 209.36914,51.983867 C 209.31638,52.043041 209.26911,52.107563 209.21655,52.166972 C 207.87428,53.682396 206.61036,55.242487 205.43237,56.86668 C 205.35136,56.978415 205.26861,57.089964 205.18823,57.202373 C 204.72934,57.844052 204.27849,58.498636 203.84546,59.155498 C 203.61462,59.505492 203.39882,59.867595 203.17408,60.223613 C 202.89345,60.668521 202.61899,61.115192 202.3501,61.566386 C 202.19066,61.833412 202.01784,62.0896 201.86181,62.359844 L 14.361817,387.12791 C 14.221298,387.37131 14.10196,387.61585 13.965088,387.86034 C 13.669086,388.38787 13.361074,388.91041 13.080078,389.44725 C 12.917045,389.75923 12.779566,390.07973 12.622314,390.39329 C 12.308062,391.01923 12.000408,391.64768 11.706787,392.28538 C 11.562333,392.5992 11.418364,392.91625 11.279541,393.23143 C 10.944104,393.99311 10.639041,394.77356 10.333497,395.55076 C 10.293433,395.65253 10.25092,395.75406 10.211426,395.85593 C 9.9177713,396.61467 9.6214756,397.37207 9.3569336,398.14476 C 9.2553319,398.44097 9.1486582,398.73273 9.0517578,399.02976 C 8.8215058,399.73707 8.6163281,400.4479 8.4108887,401.166 C 8.3297949,401.44884 8.2741885,401.73706 8.1972656,402.02049 C 8.0624647,402.51843 7.9232471,403.01309 7.8005372,403.51585 C 7.6441192,404.15486 7.4783193,404.79714 7.3427734,405.43846 C 7.2898585,405.68979 7.270586,405.94897 7.2207031,406.2014 C 7.045754,407.08302 6.8683985,407.97182 6.7324219,408.85643 C 6.5715902,409.90275 6.442501,410.95109 6.3356934,411.99973 C 6.2486211,412.85464 6.2040811,413.708 6.1525879,414.56321 C 6.125503,415.01066 6.0786426,415.45605 6.0610352,415.90598 C 6.0429912,416.37415 6.0380078,416.84196 6.0305176,417.30979 C 6.0244658,417.66774 6,418.01854 6,418.37791 C 6,418.73729 6.0244658,419.08809 6.0305176,419.44603 C 6.0360937,419.75293 6.0509502,420.05498 6.0610352,420.36156 C 6.0783574,420.91313 6.0905224,421.46162 6.1220703,422.0095 C 6.1707031,422.82725 6.2246641,423.63681 6.3051758,424.4509 C 6.3189863,424.59367 6.3514405,424.73568 6.3662109,424.87815 C 6.4544492,425.71181 6.5499853,426.55199 6.6713867,427.38059 C 6.7078346,427.63293 6.7234834,427.89219 6.7629395,428.14354 C 6.8441631,428.65455 6.9438282,429.16078 7.0375977,429.66942 C 7.1570723,430.3237 7.294626,430.97553 7.4343262,431.62254 C 7.6471759,432.60835 7.8774307,433.58428 8.1362305,434.55223 C 8.1387596,434.56167 8.1336973,434.57331 8.1362305,434.58274 C 9.4474764,439.47762 11.328184,444.12436 13.720947,448.46824 C 14.150089,449.24733 14.602758,450.02918 15.06372,450.78758 C 15.120838,450.88199 15.189191,450.9681 15.246826,451.06223 C 15.715582,451.82433 16.181076,452.58053 16.681153,453.32054 C 17.79138,454.97059 19.008403,456.56412 20.282227,458.11179 C 20.778246,458.71446 21.287666,459.29612 21.808106,459.88182 C 22.009275,460.10794 22.183557,460.36057 22.387939,460.58372 C 22.446553,460.64777 22.512136,460.703 22.571045,460.76682 C 23.13719,461.3799 23.720561,461.97738 24.310547,462.56737 C 24.847585,463.10402 25.399351,463.63524 25.958497,464.15428 C 26.227469,464.40438 26.509122,464.64131 26.78247,464.8867 C 26.857453,464.95388 26.920733,465.03347 26.996094,465.10032 C 27.571715,465.61213 28.171769,466.10511 28.766114,466.59568 C 29.445787,467.15469 30.133425,467.71015 30.841309,468.24363 C 30.974657,468.34455 31.103858,468.44895 31.238037,468.54881 C 31.897288,469.03741 32.569123,469.51741 33.252197,469.98314 C 33.415657,470.09503 33.575909,470.20845 33.740478,470.31883 C 34.429265,470.779 35.13386,471.22536 35.846192,471.6616 C 35.997648,471.75463 36.15165,471.8445 36.303955,471.93626 C 36.621249,472.12694 36.928141,472.33027 37.25,472.51609 C 37.459617,472.63713 37.680439,472.73346 37.890869,472.85179 C 38.616255,473.26049 39.345188,473.66178 40.088135,474.04198 C 41.022743,474.52025 41.965198,474.98342 42.92627,475.41526 C 42.943152,475.42286 42.970415,475.4077 42.987305,475.41526 C 43.88253,475.81656 44.786462,476.21514 45.703369,476.57493 C 45.793344,476.61031 45.887961,476.63158 45.978028,476.66648 C 46.73676,476.96015 47.494156,477.25644 48.266845,477.52098 C 48.563052,477.62258 48.854814,477.72925 49.151856,477.82615 C 49.859155,478.05642 50.569988,478.26159 51.288086,478.46702 C 51.570918,478.54813 51.859146,478.60372 52.142578,478.68065 C 52.640511,478.81546 53.135171,478.95467 53.637939,479.07737 C 54.276932,479.2338 54.919225,479.39959 55.560547,479.53514 C 55.811872,479.58805 56.071064,479.60732 56.323486,479.65721 C 57.20511,479.83216 58.093902,480.00951 58.978516,480.14549 C 60.024839,480.30633 61.073183,480.43541 62.121826,480.54222 C 62.976719,480.6293 63.830087,480.67383 64.685303,480.72532 C 65.132751,480.75242 65.578147,480.79927 66.028076,480.81687 C 66.496235,480.83493 66.964057,480.8399 67.431885,480.84739 C 67.789827,480.85346 68.140625,480.87791 68.5,480.87791 L 443.5,480.87791 C 443.85938,480.87792 444.21017,480.85345 444.56811,480.84739 C 445.03595,480.83991 445.50377,480.83492 445.97192,480.81687 C 446.21615,480.80747 446.46005,480.79865 446.70434,480.78636 C 446.90947,480.77596 447.11009,480.73771 447.3147,480.72532 C 448.16991,480.67384 449.02329,480.62929 449.87817,480.54222 C 450.92681,480.43542 451.97516,480.30632 453.02148,480.14549 C 453.9061,480.00952 454.79489,479.83216 455.67651,479.65721 C 455.81661,479.62941 455.96376,479.62496 456.10376,479.59617 C 456.21548,479.5733 456.32795,479.55862 456.43945,479.53514 C 457.08078,479.3996 457.72307,479.23379 458.36206,479.07737 C 458.61557,479.01533 458.87191,478.95962 459.125,478.89426 C 459.50498,478.79644 459.877,478.69386 460.25415,478.58909 C 460.40635,478.54672 460.5599,478.51061 460.71192,478.46702 C 461.43001,478.2616 462.14085,478.05641 462.84814,477.82615 C 462.97091,477.7862 463.09192,477.74479 463.21436,477.70409 C 463.38809,477.64621 463.55971,477.58047 463.73316,477.52098 C 464.50585,477.25645 465.26324,476.96014 466.02197,476.66648 C 466.06071,476.65151 466.10533,476.65104 466.14405,476.63597 C 466.19495,476.61612 466.24575,476.59493 466.29663,476.57493 C 467.21354,476.21515 468.11747,475.81655 469.01269,475.41526 C 469.02115,475.41148 469.03477,475.41905 469.04322,475.41526 C 469.05154,475.41153 469.0654,475.41901 469.07373,475.41526 C 470.0348,474.98343 470.97726,474.52024 471.91186,474.04198 C 472.65482,473.66179 473.38375,473.26048 474.10913,472.85179 C 474.31956,472.73347 474.54038,472.63712 474.75,472.51609 C 475.07186,472.33028 475.37875,472.12693 475.69605,471.93626 C 475.76636,471.89401 475.83957,471.85668 475.90967,471.81419 C 475.99196,471.76418 476.07177,471.71199 476.15381,471.6616 C 476.86614,471.22537 477.57074,470.779 478.25952,470.31883 C 478.32062,470.27801 478.38171,470.23776 478.44263,470.19676 C 478.54593,470.12696 478.64495,470.05354 478.7478,469.98314 C 479.43088,469.51742 480.10271,469.0374 480.76197,468.54881 C 480.80287,468.5185 480.84322,468.48766 480.88403,468.45726 C 480.97714,468.38763 481.06599,468.31378 481.15869,468.24363 C 481.86657,467.71016 482.55422,467.15468 483.23389,466.59568 C 483.82823,466.10512 484.42828,465.61212 485.00391,465.10032 C 485.17661,464.94714 485.35199,464.79741 485.5227,464.64256 C 485.69844,464.48283 485.86761,464.31597 486.0415,464.15428 C 486.60064,463.63525 487.15241,463.10401 487.68945,462.56737 C 488.27943,461.97739 488.86282,461.37989 489.42895,460.76682 C 489.54217,460.64419 489.65252,460.52406 489.76464,460.40062 C 489.91489,460.23534 490.04342,460.04871 490.19189,459.88182 C 490.71234,459.29613 491.22176,458.71445 491.71777,458.11179 C 492.9916,456.56413 494.20862,454.97058 495.31885,453.32054 C 495.59579,452.91072 495.8449,452.48596 496.11231,452.06932 C 496.38574,451.64133 496.67376,451.22148 496.93628,450.78758 C 497.39724,450.02919 497.84991,449.24732 498.27905,448.46824 C 500.67182,444.12437 502.55252,439.47761 503.86377,434.58274 C 503.86632,434.57324 503.86122,434.56174 503.86377,434.55223 C 504.12257,433.58429 504.35282,432.60834 504.56567,431.62254 C 504.70537,430.97554 504.84293,430.32369 504.9624,429.66942 C 505.05617,429.16079 505.15584,428.65454 505.23706,428.14354 C 505.24986,428.06306 505.25509,427.97994 505.26758,427.8994 C 505.29366,427.72891 505.30391,427.55154 505.32861,427.38059 C 505.45002,426.552 505.54554,425.7118 505.63379,424.87815 C 505.63815,424.8369 505.66002,424.79735 505.66431,424.75609 C 505.67459,424.65494 505.68503,424.5522 505.69483,424.4509 C 505.77533,423.63682 505.8293,422.82724 505.87792,422.0095 C 505.88645,421.86619 505.9009,421.72566 505.90845,421.58226 C 505.93985,420.96362 505.95624,420.34394 505.96948,419.72068 C 505.97154,419.62932 505.96782,419.53743 505.96948,419.44603 C 505.97554,419.0881 506,418.73728 506,418.37791 C 506,418.01855 505.97554,417.66773 505.96948,417.30979 C 505.962,416.84197 505.95701,416.37414 505.93897,415.90598 C 505.92955,415.66177 505.92075,415.41785 505.90845,415.17356 C 505.89804,414.96845 505.85979,414.76781 505.84741,414.56321 C 505.79592,413.70801 505.75138,412.85463 505.66431,411.99973 C 505.5575,410.9511 505.42841,409.90274 505.26758,408.85643 C 505.1316,407.97183 504.95425,407.08301 504.7793,406.2014 C 504.75149,406.06131 504.74705,405.91415 504.71826,405.77415 C 504.69538,405.66243 504.6807,405.54996 504.65723,405.43846 C 504.52168,404.79715 504.35588,404.15485 504.19947,403.51585 C 504.13741,403.26236 504.08171,403.00599 504.01636,402.75291 C 503.91851,402.37293 503.81596,402.00091 503.71119,401.62376 C 503.66879,401.47157 503.63269,401.31802 503.58911,401.166 C 503.38367,400.44791 503.17849,399.73706 502.94824,399.02976 C 502.90829,398.90701 502.86687,398.78598 502.82617,398.66356 C 502.76829,398.48983 502.70256,398.31819 502.64306,398.14476 C 502.37852,397.37208 502.08223,396.61466 501.78858,395.85593 C 501.77358,395.81721 501.77312,395.77258 501.75806,395.73387 C 501.73359,395.67116 501.69118,395.61343 501.6665,395.55076 C 501.36096,394.77357 501.05589,393.9931 500.72046,393.23143 C 500.65812,393.08989 500.6007,392.94517 500.53736,392.80418 C 500.45936,392.63062 500.37292,392.45854 500.29322,392.28538 C 499.99959,391.64769 499.69194,391.01922 499.37769,390.39329 C 499.30184,390.24225 499.24109,390.08588 499.16406,389.93553 C 499.08115,389.77348 499.00438,389.60887 498.91992,389.44725 C 498.63893,388.91042 498.33092,388.38786 498.03491,387.86034 C 497.89804,387.61586 497.7787,387.3713 497.63819,387.12791 L 310.13819,62.359844 C 309.71832,61.63262 309.27024,60.927465 308.82592,60.223613 C 307.00313,57.333757 304.9378,54.568335 302.63086,51.983867 C 301.84373,51.100865 301.01912,50.250679 300.18945,49.420391 C 298.72577,47.957797 297.17744,46.566711 295.55078,45.239483 C 295.196,44.949788 294.84305,44.666202 294.48267,44.384991 C 294.06057,44.055705 293.63333,43.728183 293.20092,43.408428 C 292.09026,42.587199 290.94017,41.800731 289.78296,41.058574 C 289.10244,40.621973 288.41044,40.190448 287.70776,39.776836 C 286.9512,39.33241 286.19194,38.906461 285.41895,38.495097 C 279.29229,35.222591 272.83612,33.053144 266.31494,31.964336 C 266.29515,31.96101 266.2737,31.967641 266.25391,31.964336 C 265.2795,31.802621 264.3011,31.682267 263.32422,31.567608 C 262.45104,31.463537 261.57764,31.360286 260.6997,31.292949 C 260.15979,31.252711 259.62212,31.227509 259.08228,31.201397 C 258.61151,31.177573 258.15011,31.15355 257.67847,31.140361 C 257.56652,31.137472 257.45471,31.142646 257.34278,31.140361 C 256.3377,31.11769 255.32908,31.114367 254.32153,31.140361 z M 255.84741,138.44017 C 280.73799,138.29711 294.59203,158.07012 291.88867,179.36424 C 289.41482,198.8506 279.86183,284.41502 278.15576,295.78879 C 276.43917,307.23276 266.74678,316.71268 256.12207,316.968 C 245.49738,317.22332 234.82469,308.03758 233.23389,295.78879 C 231.82677,284.95419 222.21631,197.08502 220.08081,179.6389 C 217.61184,159.46839 230.95683,138.58321 255.84741,138.44017 z M 256,351.697 C 273.29935,351.69701 287.34155,366.0026 287.34155,383.61839 C 287.34156,401.23417 273.29935,415.50926 256,415.50926 C 238.70066,415.50926 224.65845,401.23418 224.65845,383.61839 C 224.65844,366.00259 238.70065,351.697 256,351.697 z"
       id="path4958" />
  </g>
</svg>
